<?xml version="1.0" encoding="utf-8"?>
<!-- Generator: Adobe Illustrator 26.3.1, SVG Export Plug-In . SVG Version: 6.00 Build 0)  -->
<svg version="1.1" id="Layer_1" xmlns="http://www.w3.org/2000/svg" xmlns:xlink="http://www.w3.org/1999/xlink" x="0px" y="0px"
	 viewBox="0 0 31.85 53.71" style="enable-background:new 0 0 31.85 53.71;" xml:space="preserve">
<style type="text/css">
	.st0{fill:#FFFFFF;}
	.st1{fill:#17181D;}
	.st2{fill:#E5BC03;}
	.st3{fill:none;stroke:#E5BC03;stroke-miterlimit:10;}
	.st4{fill:none;stroke:#E5BC03;stroke-width:2;stroke-miterlimit:10;}
	.st5{fill:none;stroke:#E5BC03;stroke-width:0.5208;stroke-miterlimit:10;}
	.st6{fill:#D0CBC7;}
	.st7{fill:#666666;}
	.st8{font-family:'PlacardMT-Condensed';}
	.st9{font-size:15px;}
</style>
<g>
	<g>
		<g>
			<path class="st2" d="M30.85,20.11v10.74H20.11V20.11H30.85 M31.21,19.11H19.75c-0.35,0-0.64,0.29-0.64,0.64v11.47
				c0,0.35,0.29,0.64,0.64,0.64h11.47c0.35,0,0.64-0.29,0.64-0.64V19.75C31.85,19.4,31.57,19.11,31.21,19.11L31.21,19.11z"/>
		</g>
		<g>
			<path class="st2" d="M7.33,2l5.6,9.74H1.73L7.33,2 M7.33,0L0,12.74h14.67L7.33,0L7.33,0z"/>
		</g>
		<g>
			<path class="st2" d="M25.48,1c2.96,0,5.37,2.41,5.37,5.37c0,2.96-2.41,5.37-5.37,5.37s-5.37-2.41-5.37-5.37
				C20.11,3.41,22.52,1,25.48,1 M25.48,0c-3.52,0-6.37,2.85-6.37,6.37c0,3.52,2.85,6.37,6.37,6.37c3.52,0,6.37-2.85,6.37-6.37
				C31.85,2.85,29,0,25.48,0L25.48,0z"/>
		</g>
		<g>
			<g>
				<g>
					<path class="st2" d="M11.4,20.53l0.45,0.45l0.45,0.45l-3.36,3.35l-0.71,0.71l0.71,0.71l3.36,3.36l-0.89,0.89l-3.36-3.36
						l-0.71-0.71l-0.71,0.71l-3.36,3.36l-0.89-0.89l3.36-3.36l0.71-0.71l-0.71-0.71l-3.36-3.35l0.45-0.45l0.45-0.45l3.36,3.36
						l0.71,0.71l0.71-0.71L11.4,20.53 M11.4,19.11l-4.06,4.06l-4.06-4.06l-1.15,1.16l-1.15,1.15l4.06,4.06l-4.06,4.06l2.31,2.31
						l4.06-4.06l4.06,4.06l2.31-2.31l-4.06-4.06l4.06-4.06l-1.15-1.15L11.4,19.11L11.4,19.11z"/>
				</g>
			</g>
		</g>
	</g>
	<text transform="matrix(1 0 0 1 4.2419 53.6103)" class="st2 st8 st9">GAME</text>
</g>
</svg>
