<?xml version="1.0" encoding="utf-8"?>
<!-- Generator: Adobe Illustrator 26.3.1, SVG Export Plug-In . SVG Version: 6.00 Build 0)  -->
<svg version="1.1" id="Layer_1" xmlns="http://www.w3.org/2000/svg" xmlns:xlink="http://www.w3.org/1999/xlink" x="0px" y="0px"
	 viewBox="0 0 58.89 53.71" style="enable-background:new 0 0 58.89 53.71;" xml:space="preserve">
<style type="text/css">
	.st0{fill:#FFFFFF;}
	.st1{fill:#17181D;}
	.st2{fill:#E5BC03;}
	.st3{fill:none;stroke:#E5BC03;stroke-miterlimit:10;}
	.st4{fill:none;stroke:#E5BC03;stroke-width:2;stroke-miterlimit:10;}
	.st5{fill:none;stroke:#E5BC03;stroke-width:0.5208;stroke-miterlimit:10;}
	.st6{fill:#D0CBC7;}
	.st7{fill:#666666;}
	.st8{font-family:'PlacardMT-Condensed';}
	.st9{font-size:15px;}
</style>
<g>
	<g>
		<path class="st2" d="M21.59,31.85h-6.09c-1.1,0-1.99-0.89-1.99-1.99V11.94c0-1.1,0.89-1.99,1.99-1.99h6.09
			c1.1,0,1.99,0.89,1.99,1.99v17.92C23.59,30.96,22.69,31.85,21.59,31.85z"/>
		<path class="st2" d="M32.49,31.85H26.4c-1.1,0-1.99-0.89-1.99-1.99V1.99C24.41,0.89,25.3,0,26.4,0h6.09c1.1,0,1.99,0.89,1.99,1.99
			v27.87C34.48,30.96,33.58,31.85,32.49,31.85z"/>
		<path class="st2" d="M43.38,31.85h-6.09c-1.1,0-1.99-0.89-1.99-1.99v-9.03c0-1.1,0.89-1.99,1.99-1.99h6.09
			c1.1,0,1.99,0.89,1.99,1.99v9.03C45.37,30.96,44.48,31.85,43.38,31.85z"/>
	</g>
	<text transform="matrix(1 0 0 1 -0.238 53.6103)" class="st2 st8 st9">LEADERBOARD</text>
</g>
</svg>
