<?xml version="1.0" encoding="utf-8"?>
<!-- Generator: Adobe Illustrator 26.3.1, SVG Export Plug-In . SVG Version: 6.00 Build 0)  -->
<svg version="1.1" id="Layer_1" xmlns="http://www.w3.org/2000/svg" xmlns:xlink="http://www.w3.org/1999/xlink" x="0px" y="0px"
	 viewBox="0 0 58.89 53.71" style="enable-background:new 0 0 58.89 53.71;" xml:space="preserve">
<style type="text/css">
	.st0{fill:#FFFFFF;}
	.st1{fill:#17181D;}
	.st2{fill:#E5BC03;}
	.st3{fill:none;stroke:#E5BC03;stroke-miterlimit:10;}
	.st4{fill:none;stroke:#E5BC03;stroke-width:2;stroke-miterlimit:10;}
	.st5{fill:none;stroke:#E5BC03;stroke-width:0.5208;stroke-miterlimit:10;}
	.st6{fill:#D0CBC7;}
	.st7{fill:#666666;}
	.st8{font-family:'PlacardMT-Condensed';}
	.st9{font-size:15px;}
</style>
<g>
	<g>
		<g>
			<path class="st2" d="M21.83,10.95c0.55,0,0.99,0.44,0.99,0.99v17.92c0,0.55-0.44,0.99-0.99,0.99h-6.09
				c-0.55,0-0.99-0.44-0.99-0.99V11.94c0-0.55,0.44-0.99,0.99-0.99H21.83 M21.83,9.95h-6.09c-1.1,0-1.99,0.89-1.99,1.99v17.92
				c0,1.1,0.89,1.99,1.99,1.99h6.09c1.1,0,1.99-0.89,1.99-1.99V11.94C23.82,10.84,22.93,9.95,21.83,9.95L21.83,9.95z"/>
		</g>
		<g>
			<path class="st2" d="M32.72,1c0.55,0,0.99,0.44,0.99,0.99v27.87c0,0.55-0.44,0.99-0.99,0.99h-6.09c-0.55,0-0.99-0.44-0.99-0.99
				V1.99c0-0.55,0.44-0.99,0.99-0.99H32.72 M32.72,0h-6.09c-1.1,0-1.99,0.89-1.99,1.99v27.87c0,1.1,0.89,1.99,1.99,1.99h6.09
				c1.1,0,1.99-0.89,1.99-1.99V1.99C34.71,0.89,33.82,0,32.72,0L32.72,0z"/>
		</g>
		<g>
			<path class="st2" d="M43.61,19.84c0.55,0,0.99,0.44,0.99,0.99v9.03c0,0.55-0.44,0.99-0.99,0.99h-6.09
				c-0.55,0-0.99-0.44-0.99-0.99v-9.03c0-0.55,0.44-0.99,0.99-0.99H43.61 M43.61,18.84h-6.09c-1.1,0-1.99,0.89-1.99,1.99v9.03
				c0,1.1,0.89,1.99,1.99,1.99h6.09c1.1,0,1.99-0.89,1.99-1.99v-9.03C45.6,19.73,44.71,18.84,43.61,18.84L43.61,18.84z"/>
		</g>
	</g>
	<text transform="matrix(1 0 0 1 0 53.6103)" class="st2 st8 st9">LEADERBOARD</text>
</g>
</svg>
