<?xml version="1.0" encoding="utf-8"?>
<!-- Generator: Adobe Illustrator 26.3.1, SVG Export Plug-In . SVG Version: 6.00 Build 0)  -->
<svg version="1.1" id="Layer_1" xmlns="http://www.w3.org/2000/svg" xmlns:xlink="http://www.w3.org/1999/xlink" x="0px" y="0px"
	 viewBox="0 0 32.1 53.7" style="enable-background:new 0 0 32.1 53.7;" xml:space="preserve">
<style type="text/css">
	.st0{fill:#FFFFFF;}
	.st1{fill:#17181D;}
	.st2{fill:#E5BC03;}
	.st3{fill:none;stroke:#E5BC03;stroke-miterlimit:10;}
	.st4{fill:none;stroke:#E5BC03;stroke-width:2;stroke-miterlimit:10;}
	.st5{fill:none;stroke:#E5BC03;stroke-width:0.5208;stroke-miterlimit:10;}
	.st6{fill:#D0CBC7;}
	.st7{fill:#666666;}
	.st8{font-family:'PlacardMT-Condensed';}
	.st9{font-size:15px;}
</style>
<g>
	<g>
		<g>
			<path class="st2" d="M16.11,1c3.57,0,6.47,2.9,6.47,6.47s-2.9,6.47-6.47,6.47s-6.47-2.9-6.47-6.47S12.54,1,16.11,1 M16.11,0
				c-4.13,0-7.47,3.35-7.47,7.47s3.35,7.47,7.47,7.47c4.13,0,7.47-3.35,7.47-7.47S20.24,0,16.11,0L16.11,0z"/>
		</g>
		<g>
			<path class="st2" d="M16.11,18.28c7.15,0,13.02,5.55,13.53,12.57H16.11H2.58C3.09,23.83,8.96,18.28,16.11,18.28 M16.11,17.28
				c-7.99,0-14.57,6.58-14.57,14.57h14.57h14.57C30.68,23.86,24.1,17.28,16.11,17.28L16.11,17.28z"/>
		</g>
	</g>
	<text transform="matrix(1 0 0 1 -0.4214 53.6026)" class="st2 st8 st9">PROFILE</text>
</g>
</svg>
