<?xml version="1.0" encoding="utf-8"?>
<!-- Generator: Adobe Illustrator 26.3.1, SVG Export Plug-In . SVG Version: 6.00 Build 0)  -->
<svg version="1.1" id="Layer_1" xmlns="http://www.w3.org/2000/svg" xmlns:xlink="http://www.w3.org/1999/xlink" x="0px" y="0px"
	 viewBox="0 0 28.35 53.71" style="enable-background:new 0 0 28.35 53.71;" xml:space="preserve">
<style type="text/css">
	.st0{fill:#FFFFFF;}
	.st1{fill:#17181D;}
	.st2{fill:#E5BC03;}
	.st3{fill:none;stroke:#E5BC03;stroke-miterlimit:10;}
	.st4{fill:none;stroke:#E5BC03;stroke-width:2;stroke-miterlimit:10;}
	.st5{fill:none;stroke:#E5BC03;stroke-width:0.5208;stroke-miterlimit:10;}
	.st6{fill:#D0CBC7;}
	.st7{fill:#666666;}
	.st8{font-family:'PlacardMT-Condensed';}
	.st9{font-size:15px;}
</style>
<g>
	<g>
		<path class="st2" d="M21.36,1c0.55,1.33,1.61,2.39,2.94,2.94v23.97c-1.33,0.55-2.39,1.61-2.94,2.94H7.22
			c-0.27-0.65-0.67-1.25-1.18-1.76c-0.51-0.51-1.11-0.91-1.76-1.18V3.95C5.61,3.39,6.67,2.33,7.22,1H21.36 M22.08,0H6.5
			C6.1,1.58,4.86,2.83,3.28,3.23v25.4c0.79,0.2,1.5,0.61,2.05,1.17c0.56,0.56,0.97,1.27,1.17,2.05h15.57
			c0.4-1.58,1.65-2.82,3.22-3.22V3.23C23.72,2.83,22.48,1.58,22.08,0L22.08,0z"/>
	</g>
	<text transform="matrix(1 0 0 1 0 53.6064)" class="st2 st8 st9">TICKET</text>
</g>
</svg>
